<?xml version="1.0" encoding="utf-8"?>
<!-- Generator: Adobe Illustrator 19.0.0, SVG Export Plug-In . SVG Version: 6.00 Build 0)  -->
<svg version="1.1" id="Layer_1" xmlns="http://www.w3.org/2000/svg" xmlns:xlink="http://www.w3.org/1999/xlink" x="0px" y="0px"
	 viewBox="0 0 500 500" style="enable-background:new 0 0 500 500;" xml:space="preserve">
<style type="text/css">
	.st0{fill:#E21937;}
	.st1{fill:#22457E;}
</style>
<g id="XMLID_1_">
	<path id="XMLID_3_" class="st0" d="M151,158.2c22.3-15.1,50.3-26,84.1-29c7.4-0.3,7.7,3.1,5.7,6.9c-2.2,4.2-7.3,8.4-10.5,8.5
		c-56.1,3-91.9,24.3-121.8,55.9C116.5,186.7,131.5,171.5,151,158.2"/>
	<path id="XMLID_4_" class="st1" d="M349,341.8c-22.3,15.1-50.3,26-84.1,29c-7.4,0.2-7.7-3.1-5.7-6.9c2.2-4.3,7.3-8.4,10.5-8.5
		c56.1-3,91.9-24.4,121.7-55.9C383.5,313.3,368.6,328.5,349,341.8"/>
	<path id="XMLID_5_" class="st1" d="M306.9,253.5l0,1.5c0,5.7,0,10.9-4.7,14.9c-4.8,4-10.6,3.9-16.7,4c-14.4,0.1-24.9-0.5-25-19.6
		l-0.1-13.5c-0.1-17.3,9.2-19.9,24.7-20c14.5-0.1,21.2,1.3,21.7,16.9v2l-14.5,0.1v-2c-0.5-4.7-3.9-5-8.7-4.9c-8,0.1-8.8,2.5-8.7,10
		l0.1,8.2c0.1,7.8,0.4,10.8,8.9,10.8c5.8-0.1,8.6-0.5,8.6-6.6v-1.6L306.9,253.5"/>
	<path id="XMLID_6_" class="st1" d="M346.5,236.9c-0.3-5.3-4.9-5.2-9.1-5.2c-10.1,0.1-10.4,3.1-10.5,11.6l0.1,8.5
		c0.1,9.2,3.3,10.2,10.6,10.2c7.2-0.1,9.1-1.7,9-8.9l-9.7,0.1l-0.1-9.7l24-0.2l0.1,9.2c0.2,17.6-4.3,20.9-23.2,21
		c-16.6,0.1-25.1-2.6-25.2-19.5l-0.1-13.5c-0.1-17.3,9.4-20,24.9-20.1c13.7-0.1,23.4-0.1,23.5,16.5L346.5,236.9"/>
	<polyline id="XMLID_7_" class="st1" points="381.2,272.7 367.1,272.8 366.7,220.5 389,220.3 399.4,253.1 399.9,253.1 409.2,220.2 
		432.1,220 432.5,272.2 418.4,272.4 419.5,232.3 419,232.3 405.9,272.5 393.8,272.6 379.9,232.6 379.5,232.6 381.2,272.7 	"/>
	<path id="XMLID_8_" class="st0" d="M114.1,255v1.5c0.1,5.7,0,10.9-4.7,14.9c-4.8,3.9-10.6,3.9-16.7,4c-14.4,0.1-24.9-0.5-25-19.6
		l-0.1-13.5c-0.1-17.3,9.2-19.8,24.7-20c14.5-0.1,21.3,1.3,21.7,17v2l-14.5,0.1v-2c-0.5-4.7-3.9-5-8.6-4.9c-8,0.1-8.8,2.5-8.7,9.9
		l0.1,8.2c0.1,7.8,0.5,10.8,8.9,10.7c5.9-0.1,8.7-0.5,8.6-6.6l-0.1-1.5L114.1,255"/>
	<polyline id="XMLID_9_" class="st0" points="134,274.7 119.9,274.8 119.5,222.5 141.8,222.3 152.2,255.1 152.6,255.1 161.9,222.2 
		184.8,222 185.3,274.2 171.2,274.4 172.3,234.3 171.7,234.3 158.7,274.5 146.5,274.6 132.7,234.6 132.3,234.6 134,274.7 	"/>
	<path id="XMLID_12_" class="st0" d="M215.6,232.2h-0.1l-6.2,22.7l13.1-0.1L215.6,232.2z M206.3,265.1l-2.5,9l-14.7,0.1l15.4-52.4
		l21.4-0.2l16.5,52.1l-14.4,0.1l-2.8-9L206.3,265.1"/>
</g>
</svg>
